# xmcd
#
# Track frame offsets:
#	183
#	11645
#	22345
#	34558
#	47283
#	57633
#	69208
#	80345
#	94445
#	108508
#	122558
#	133983
#	143908
#	156295
#	167233
#	180258
#	188858
#	202708
#
# Disc length: 2847 seconds
#
# Revision: 0
# Processed by: cddbd v1.4PL0 Copyright (c) Steve Scherf et al.
# Submitted via: MusicManager 7.0.3.0 
#
DISCID=f40b1d12
DTITLE=Diddley, Bo - Bo's guitar
DYEAR=1992
DGENRE=blues
TTITLE0=Bo's guitar
TTITLE1=Dancing girl
TTITLE2=She's mine, she's fine
TTITLE3=Hush your mouth
TTITLE4=Willie and Lillie
TTITLE5=Little girl
TTITLE6=The great grandfather
TTITLE7=I love you so
TTITLE8=Oh yea
TTITLE9=Bo meets the monster
TTITLE10=I am looking for a woman
TTITLE11=Diddling
TTITLE12=Caddilac
TTITLE13=All together
TTITLE14=Mumblin' guitar
TTITLE15=Let me in
TTITLE16=Ride on Josephine
TTITLE17=I'm sorry
EXTD=
EXTT0=
EXTT1=
EXTT2=
EXTT3=
EXTT4=
EXTT5=
EXTT6=
EXTT7=
EXTT8=
EXTT9=
EXTT10=
EXTT11=
EXTT12=
EXTT13=
EXTT14=
EXTT15=
EXTT16=
EXTT17=
PLAYORDER=
